<svg xmlns="http://www.w3.org/2000/svg" viewBox="5 20 470 180" role="img" aria-labelledby="vaam-nav-title">
  <title id="vaam-nav-title">VAAM</title>
  <defs>
    <linearGradient id="ch" x1="0%" y1="0%" x2="100%" y2="100%">
      <stop offset="0%" stop-color="#cbd5e1"/><stop offset="20%" stop-color="#94a3b8"/>
      <stop offset="44%" stop-color="#e2e8f0"/><stop offset="56%" stop-color="#94a3b8"/>
      <stop offset="80%" stop-color="#cbd5e1"/><stop offset="100%" stop-color="#64748b"/>
    </linearGradient>
    <linearGradient id="chIn" x1="100%" y1="0%" x2="0%" y2="100%">
      <stop offset="0%" stop-color="#cbd5e1"/><stop offset="50%" stop-color="#94a3b8"/>
      <stop offset="100%" stop-color="#e2e8f0"/>
    </linearGradient>
    <linearGradient id="eF" x1="0%" y1="0%" x2="65%" y2="100%">
      <stop offset="0%" stop-color="#6ee7b7"/><stop offset="30%" stop-color="#34d399"/>
      <stop offset="65%" stop-color="#10b981"/><stop offset="100%" stop-color="#059669"/>
    </linearGradient>
    <linearGradient id="eS" x1="20%" y1="0%" x2="100%" y2="75%">
      <stop offset="0%" stop-color="#047857"/><stop offset="100%" stop-color="#064e3b"/>
    </linearGradient>
    <linearGradient id="eB" x1="0%" y1="100%" x2="100%" y2="0%">
      <stop offset="0%" stop-color="#34d399"/><stop offset="100%" stop-color="#a7f3d0"/>
    </linearGradient>
    <linearGradient id="eEdge" x1="0%" y1="0%" x2="0%" y2="100%">
      <stop offset="0%" stop-color="#065f46"/><stop offset="100%" stop-color="#064e3b"/>
    </linearGradient>
    <linearGradient id="aF" x1="100%" y1="0%" x2="35%" y2="100%">
      <stop offset="0%" stop-color="#fef3c7"/><stop offset="30%" stop-color="#fde68a"/>
      <stop offset="65%" stop-color="#fbbf24"/><stop offset="100%" stop-color="#d97706"/>
    </linearGradient>
    <linearGradient id="aS" x1="80%" y1="0%" x2="0%" y2="75%">
      <stop offset="0%" stop-color="#b45309"/><stop offset="100%" stop-color="#78350f"/>
    </linearGradient>
    <linearGradient id="aB" x1="100%" y1="100%" x2="0%" y2="0%">
      <stop offset="0%" stop-color="#fbbf24"/><stop offset="100%" stop-color="#fef9c3"/>
    </linearGradient>
    <linearGradient id="aEdge" x1="0%" y1="0%" x2="0%" y2="100%">
      <stop offset="0%" stop-color="#92400e"/><stop offset="100%" stop-color="#78350f"/>
    </linearGradient>
    <linearGradient id="sL" x1="0%" y1="0%" x2="100%" y2="50%">
      <stop offset="0%" stop-color="#334155"/><stop offset="100%" stop-color="#0f172a"/>
    </linearGradient>
    <linearGradient id="sR" x1="100%" y1="0%" x2="0%" y2="50%">
      <stop offset="0%" stop-color="#475569"/><stop offset="100%" stop-color="#1e293b"/>
    </linearGradient>
    <linearGradient id="spL" x1="0%" y1="0%" x2="100%" y2="100%">
      <stop offset="0%" stop-color="#fff" stop-opacity="0.38"/>
      <stop offset="50%" stop-color="#fff" stop-opacity="0.06"/>
      <stop offset="100%" stop-color="#fff" stop-opacity="0"/>
    </linearGradient>
    <linearGradient id="spR" x1="100%" y1="0%" x2="0%" y2="100%">
      <stop offset="0%" stop-color="#fff" stop-opacity="0.33"/>
      <stop offset="50%" stop-color="#fff" stop-opacity="0.05"/>
      <stop offset="100%" stop-color="#fff" stop-opacity="0"/>
    </linearGradient>
    <linearGradient id="vdiv" x1="0" y1="0" x2="0" y2="1">
      <stop offset="0%" stop-color="#10b981" stop-opacity="0"/>
      <stop offset="15%" stop-color="#10b981"/><stop offset="48%" stop-color="#34d399"/>
      <stop offset="52%" stop-color="#fbbf24"/><stop offset="85%" stop-color="#d97706"/>
      <stop offset="100%" stop-color="#d97706" stop-opacity="0"/>
    </linearGradient>
    <linearGradient id="acc" x1="0%" y1="0%" x2="100%" y2="0%">
      <stop offset="0%" stop-color="#059669" stop-opacity="0"/>
      <stop offset="20%" stop-color="#10b981"/>
      <stop offset="49%" stop-color="#34d399" stop-opacity="0.5"/>
      <stop offset="51%" stop-color="#fbbf24" stop-opacity="0.5"/>
      <stop offset="80%" stop-color="#d97706"/>
      <stop offset="100%" stop-color="#d97706" stop-opacity="0"/>
    </linearGradient>
    <filter id="fs" x="-12%" y="-8%" width="130%" height="130%">
      <feDropShadow dx="0" dy="3" stdDeviation="5" flood-color="#0f172a" flood-opacity="0.08"/>
    </filter>
  </defs>

  <!-- COMPASS EMBLEM -->
  <g transform="translate(110,110) scale(0.714)" filter="url(#fs)">
    <circle cx="0" cy="0" r="129" fill="none" stroke="#475569" stroke-width="0.5" opacity="0.25"/>
    <circle cx="0" cy="0" r="126" fill="none" stroke="url(#ch)" stroke-width="3.2"/>
    <circle cx="0" cy="0" r="121" fill="none" stroke="url(#chIn)" stroke-width="0.8"/>
    <path d="M-84,-90 A123,123 0 0,1 36,-117" fill="none" stroke="#fff" stroke-width="0.8" opacity="0.20" stroke-linecap="round"/>
    <g stroke="#94a3b8" stroke-linecap="round">
      <line x1="0" y1="-121" x2="0" y2="-126" stroke-width="0.6" transform="rotate(30)"/>
      <line x1="0" y1="-121" x2="0" y2="-126" stroke-width="0.6" transform="rotate(60)"/>
      <line x1="0" y1="-121" x2="0" y2="-126" stroke-width="0.6" transform="rotate(120)"/>
      <line x1="0" y1="-121" x2="0" y2="-126" stroke-width="0.6" transform="rotate(150)"/>
      <line x1="0" y1="-121" x2="0" y2="-126" stroke-width="0.6" transform="rotate(210)"/>
      <line x1="0" y1="-121" x2="0" y2="-126" stroke-width="0.6" transform="rotate(240)"/>
      <line x1="0" y1="-121" x2="0" y2="-126" stroke-width="0.6" transform="rotate(300)"/>
      <line x1="0" y1="-121" x2="0" y2="-126" stroke-width="0.6" transform="rotate(330)"/>
      <line x1="0" y1="-122.5" x2="0" y2="-126" stroke-width="0.3" transform="rotate(15)"/>
      <line x1="0" y1="-122.5" x2="0" y2="-126" stroke-width="0.3" transform="rotate(45)"/>
      <line x1="0" y1="-122.5" x2="0" y2="-126" stroke-width="0.3" transform="rotate(75)"/>
      <line x1="0" y1="-122.5" x2="0" y2="-126" stroke-width="0.3" transform="rotate(105)"/>
      <line x1="0" y1="-122.5" x2="0" y2="-126" stroke-width="0.3" transform="rotate(135)"/>
      <line x1="0" y1="-122.5" x2="0" y2="-126" stroke-width="0.3" transform="rotate(165)"/>
      <line x1="0" y1="-122.5" x2="0" y2="-126" stroke-width="0.3" transform="rotate(195)"/>
      <line x1="0" y1="-122.5" x2="0" y2="-126" stroke-width="0.3" transform="rotate(225)"/>
      <line x1="0" y1="-122.5" x2="0" y2="-126" stroke-width="0.3" transform="rotate(255)"/>
      <line x1="0" y1="-122.5" x2="0" y2="-126" stroke-width="0.3" transform="rotate(285)"/>
      <line x1="0" y1="-122.5" x2="0" y2="-126" stroke-width="0.3" transform="rotate(315)"/>
      <line x1="0" y1="-122.5" x2="0" y2="-126" stroke-width="0.3" transform="rotate(345)"/>
    </g>
    <rect x="-2" y="-140" width="4" height="18" rx="2" fill="url(#ch)"/>
    <rect x="-2" y="122"  width="4" height="18" rx="2" fill="url(#ch)"/>
    <rect x="-140" y="-1.2" width="16" height="2.4" rx="1.2" fill="url(#ch)"/>
    <rect x="124"  y="-1.2" width="16" height="2.4" rx="1.2" fill="url(#ch)"/>
    <circle cx="-90" cy="-90" r="1.2" fill="#94a3b8"/>
    <circle cx="90"  cy="-90" r="1.2" fill="#94a3b8"/>
    <circle cx="-90" cy="90"  r="1.2" fill="#94a3b8"/>
    <circle cx="90"  cy="90"  r="1.2" fill="#94a3b8"/>
    <polygon points="0,-120 -10,-84 0,-90" fill="url(#sL)"/>
    <polygon points="0,-120  10,-84 0,-90" fill="url(#sR)"/>
    <polygon points="-62,-84 -26,-84 0,54 -10,70" fill="url(#eF)"/>
    <polygon points="-26,-84 0,54 0,30 -17,-68" fill="url(#eS)"/>
    <polygon points="-62,-84 -10,70 -9,67 -61,-82" fill="url(#eEdge)" opacity="0.45"/>
    <polygon points="-62,-84 -26,-84 -25,-80 -59,-80" fill="url(#eB)"/>
    <polygon points="-54,-84 -42,-84 -14,26 -20,26" fill="url(#spL)"/>
    <polygon points="62,-84 26,-84 0,54 10,70" fill="url(#aF)"/>
    <polygon points="26,-84 0,54 0,30 17,-68" fill="url(#aS)"/>
    <polygon points="62,-84 10,70 9,67 61,-82" fill="url(#aEdge)" opacity="0.45"/>
    <polygon points="62,-84 26,-84 25,-80 59,-80" fill="url(#aB)"/>
    <polygon points="42,-84 54,-84 14,26 20,26" fill="url(#spR)"/>
    <polygon points="0,120 -10,70 0,76" fill="url(#sL)"/>
    <polygon points="0,120  10,70 0,76" fill="url(#sR)"/>
  </g>

  <!-- VERTICAL DIVIDER -->
  <line x1="232" y1="45" x2="232" y2="175" stroke="url(#vdiv)" stroke-width="1.5"/>

  <!-- WORDMARK -->
  <text x="252" y="120" font-family="'Plus Jakarta Sans','Arial Black','Segoe UI',sans-serif" font-weight="800" font-size="64" letter-spacing="12" fill="#0f172a">VAAM</text>

  <!-- ACCENT DIVIDER -->
  <line x1="253" y1="138" x2="462" y2="138" stroke="url(#acc)" stroke-width="1.2"/>
</svg>
